<svg id="final_svg" viewBox="315.7447509765625 304.3298645019531 446.52099609375 469.3500061035156" xmlns="http://www.w3.org/2000/svg" xmlns:xlink="http://www.w3.org/1999/xlink" xml:space="preserve">
      <g id="png_group" transform="translate(315.7447554614609, 304.3298653722293) scale(1.49)" opacity="1">
      <g height="469.35" width="446.52100642199997" transform="rotate(0)">
                  <style type="text/css">.st0{fill:#38B1C1;}	.st1{fill:url(#SVGID_1_);}	.st2{fill:url(#SVGID_00000105397676043005188700000008661083400420384429_);}	.st3{fill:#F07F3E;}	.st4{fill:#355C89;}	.st5{fill:url(#SVGID_00000018217365740272818190000002582895735157333131_);}	.st6{fill:#AAD14B;}	.st7{fill:url(#SVGID_00000149378163956496318030000001993709801497181318_);}	.st8{fill:url(#SVGID_00000085229773925965829020000005138693849778985866_);}	.st9{fill:#F2B41C;}	.st10{fill:url(#SVGID_00000121244039714574118670000011098259319752166317_);}</style>
          <g id="color_index_4" fill="rgba(56, 177, 193, 1)">
                          <path d="M152.2568817,2.249917c0,0,19.7067566-0.2972908,21.4904938,24.2292137		c1.7837524,24.5265045-24.2292023,0-24.2292023,0L152.2568817,2.249917z"></path>
              <path d="M177.1072235,248.574295c-56.1260452,10.8149261-111.3631668-31.0089569-123.3860931-93.425705		C41.6982002,92.743309,77.4479294,33.3921242,133.5739746,22.5771866L177.1072235,248.574295z"></path>
                      </g>
          <g>
                          <linearGradient id="SVGID_1_" gradientUnits="userSpaceOnUse" x1="149.5181732" y1="19.8147736" x2="173.8350983" y2="19.8147736">
                                  <stop offset="0" style="stop-color:#000000;stop-opacity:0"></stop>
                  <stop offset="1" style="stop-color:#000000;stop-opacity:0.5"></stop>
                              </linearGradient>
              <linearGradient id="SVGID_00000092450045995849245000000016213877290488224692_" gradientUnits="userSpaceOnUse" x1="120.6069031" y1="157.7045288" x2="70.399292" y2="35.8019028">
                                  <stop offset="0" style="stop-color:#000000;stop-opacity:0"></stop>
                  <stop offset="1" style="stop-color:#000000;stop-opacity:0.5"></stop>
                              </linearGradient>
              <path class="st1" d="M152.2568817,2.249917c0,0,19.7067566-0.2972908,21.4904938,24.2292137		c1.7837524,24.5265045-24.2292023,0-24.2292023,0L152.2568817,2.249917z"></path>
              <path style="fill:url(#SVGID_00000092450045995849245000000016213877290488224692_);" d="M177.1072235,248.574295		c-56.1260452,10.8149261-111.3631668-31.0089569-123.3860931-93.425705		C41.6982002,92.743309,77.4479294,33.3921242,133.5739746,22.5771866L177.1072235,248.574295z"></path>
                      </g>
          <g id="color_index_3" fill="rgba(240, 127, 62, 1)">
                          <path d="M182.8623505,247.2637177L139.3062134,21.6541004		c54.1089783-7.0200691,106.052597,34.0630493,117.6652832,94.348732		C268.5727539,176.2428741,235.6493378,233.6452942,182.8623505,247.2637177z"></path>
                      </g>
          <g id="color_index_2" fill="rgba(53, 92, 137, 1)">
                          <path d="M70.7470016,198.507843c0,0,19.312973,36.8181763,123.9593887,116.492157L96.6003799,184.7865601		L70.7470016,198.507843z"></path>
                      </g>
          <g>
                          <linearGradient id="SVGID_00000165209053603812071250000011833629855351756429_" gradientUnits="userSpaceOnUse" x1="106.0597382" y1="218.1264954" x2="188.963028" y2="310.283844">
                                  <stop offset="0" style="stop-color:#000000;stop-opacity:0"></stop>
                  <stop offset="1" style="stop-color:#000000;stop-opacity:0.5"></stop>
                              </linearGradient>
              <path style="fill:url(#SVGID_00000165209053603812071250000011833629855351756429_);" d="M70.7470016,198.507843		c0,0,19.312973,36.8181763,123.9593887,116.492157L96.6003799,184.7865601L70.7470016,198.507843z"></path>
                      </g>
          <g id="color_index_1" fill="rgba(170, 209, 75, 1)">
                          <path d="M140.1535034,154.3142395c0,0-25.4183807,51.7286224-83.3901138,43.2558289		S-36.4373245,79.3969193,60.7768173,15.1820736c0,0-42.4547577,35.9718246-45.9314499,91.6628876		s55.6703796,108.1166306,115.4617004,34.3141556L140.1535034,154.3142395z"></path>
                      </g>
          <g>
                          <linearGradient id="SVGID_00000019654953471328901550000010600178886099654320_" gradientUnits="userSpaceOnUse" x1="159.1829681" y1="137.4047546" x2="310.4944763" y2="51.5117111">
                                  <stop offset="0" style="stop-color:#000000;stop-opacity:0"></stop>
                  <stop offset="1" style="stop-color:#000000;stop-opacity:0.5"></stop>
                              </linearGradient>
              <linearGradient id="SVGID_00000118386671379282538760000003056181676177574043_" gradientUnits="userSpaceOnUse" x1="71.8612823" y1="149.197403" x2="43.3836288" y2="11.9675636">
                                  <stop offset="0" style="stop-color:#000000;stop-opacity:0"></stop>
                  <stop offset="1" style="stop-color:#000000;stop-opacity:0.5"></stop>
                              </linearGradient>
              <path style="fill:url(#SVGID_00000019654953471328901550000010600178886099654320_);" d="M182.8623505,247.2637177		L139.3062134,21.6541004c54.1089783-7.0200691,106.052597,34.0630493,117.6652832,94.348732		C268.5727539,176.2428741,235.6493378,233.6452942,182.8623505,247.2637177z"></path>
              <path style="fill:url(#SVGID_00000118386671379282538760000003056181676177574043_);" d="M140.1535034,154.3142395		c0,0-25.4183807,51.7286224-83.3901138,43.2558289S-36.4373245,79.3969193,60.7768173,15.1820736		c0,0-42.4547577,35.9718246-45.9314499,91.6628876s55.6703796,108.1166306,115.4617004,34.3141556L140.1535034,154.3142395z"></path>
                      </g>
          <g id="color_index_0" fill="rgba(242, 180, 28, 1)">
                          <circle cx="236.9656067" cy="274.8657227" r="20.8103676"></circle>
              <circle cx="291.2341614" cy="184.7865601" r="8.4443722"></circle>
              <circle cx="293.0049438" cy="106.8449631" r="3.5390711"></circle>
              <circle cx="259.2963257" cy="35.2492142" r="4.8309779"></circle>
              <path d="M152.2568817,2.249896C89.1680756-0.9322489,52.6013336-12.6146278,86.6411514,78.5050049		c22.0897827,59.1313171,52.2323532,93.3448181,69.4357834,109.3032532		c16.2968292,51.0946045,30.8998871,92.2600098,30.8998871,92.2600098		C187.4227448,205.5969391,152.2568817,2.249896,152.2568817,2.249896z"></path>
                      </g>
          <g>
                          <linearGradient id="SVGID_00000016065931846854384160000006374951266651123896_" gradientUnits="userSpaceOnUse" x1="149.5508728" y1="84.5926514" x2="191.1012726" y2="247.2014923">
                                  <stop offset="0" style="stop-color:#000000;stop-opacity:0"></stop>
                  <stop offset="1" style="stop-color:#000000;stop-opacity:0.5"></stop>
                              </linearGradient>
              <path style="fill:url(#SVGID_00000016065931846854384160000006374951266651123896_);" d="M152.2568817,2.249917		c0,0,35.1658783,203.3470001,34.7199402,277.8183899c0,0-51.7286224-145.8211975-69.1201401-229.2113037L152.2568817,2.249917z"></path>
                      </g>
              </g>
    </g>
  </svg>